<?xml version="1.0" standalone="no"?>
<!DOCTYPE svg PUBLIC "-//W3C//DTD SVG 20010904//EN"
 "http://www.w3.org/TR/2001/REC-SVG-20010904/DTD/svg10.dtd">
<svg version="1.0" xmlns="http://www.w3.org/2000/svg"
 width="1873.000000pt" height="529.000000pt" viewBox="0 0 1873.000000 529.000000"
 preserveAspectRatio="xMidYMid meet">
<metadata>
Created by potrace 1.16, written by Peter Selinger 2001-2019
</metadata>
<g transform="translate(0.000000,529.000000) scale(0.100000,-0.100000)"
fill="#000000" stroke="none">
<path d="M0 2645 l0 -2645 9365 0 9365 0 0 2645 0 2645 -9365 0 -9365 0 0
-2645z m17681 1886 c32 -32 39 -84 19 -137 -6 -15 -9 -29 -7 -31 3 -2 123 3
268 11 145 8 375 18 512 22 l247 7 0 -26 0 -25 -142 -6 c-79 -3 -233 -8 -343
-11 -194 -6 -411 -18 -526 -31 -53 -5 -58 -8 -79 -46 l-23 -40 -20 36 c-26 44
-16 44 -279 10 -242 -30 -427 -63 -599 -105 l-127 -31 -6 -36 c-3 -21 -19 -65
-35 -99 -19 -40 -26 -63 -18 -63 7 -1 3 -9 -9 -18 -12 -10 -38 -48 -60 -85
-21 -37 -41 -67 -44 -67 -4 0 -14 15 -23 33 -9 17 -39 73 -65 124 l-48 91 -52
-30 c-74 -42 -139 -110 -169 -174 -87 -190 83 -380 467 -524 41 -15 165 -53
275 -84 570 -162 716 -238 749 -392 9 -42 -10 -121 -40 -167 -46 -69 -171
-131 -319 -156 -127 -23 -365 -31 -660 -25 -165 4 -325 4 -356 0 l-56 -7 -63
-106 -62 -106 -25 39 c-13 21 -40 68 -60 104 l-36 65 -81 -3 c-509 -18 -1076
-103 -1481 -220 l-130 -38 -7 -119 c-7 -131 -34 -240 -87 -358 -17 -38 -31
-70 -31 -71 0 -1 16 0 35 2 19 2 35 0 35 -4 0 -5 -35 -43 -78 -85 -62 -62 -90
-101 -146 -200 -91 -165 -189 -329 -195 -329 -14 1 -258 442 -343 622 -23 49
-45 88 -48 88 -12 0 -189 -160 -259 -236 -212 -227 -389 -532 -433 -746 -11
-53 -14 -58 -39 -58 l-26 0 9 52 c14 77 72 229 130 338 123 234 298 451 508
629 41 35 78 66 82 70 4 4 -6 60 -22 125 -62 246 -23 410 132 551 84 75 165
107 288 113 79 3 106 0 160 -18 85 -28 148 -69 208 -135 43 -47 60 -75 98
-162 l9 -21 75 24 c315 101 794 184 1255 219 116 8 242 18 281 21 l71 5 -56
112 c-70 139 -101 231 -108 324 -7 91 8 153 54 220 107 158 328 183 476 54 20
-18 51 -62 69 -98 27 -56 32 -75 31 -141 -1 -103 -31 -208 -98 -342 -30 -60
-55 -112 -55 -116 0 -3 217 -4 483 -1 505 4 522 6 676 54 58 18 122 61 154
105 25 33 34 117 17 158 -29 70 -149 142 -345 208 -49 17 -208 65 -351 106
-391 112 -593 209 -709 338 -68 76 -88 120 -93 209 -4 67 -1 84 21 133 33 72
99 141 182 191 l66 40 -6 52 c-9 73 8 124 54 166 45 40 100 54 158 38 42 -12
96 -61 112 -103 l10 -26 73 19 c178 46 578 113 806 134 69 7 73 8 67 29 -22
71 -25 101 -15 130 15 44 47 66 98 66 35 0 49 -6 73 -29z m1039 -365 l0 -24
-157 -6 c-849 -35 -1375 -114 -1626 -244 -92 -48 -127 -89 -127 -150 0 -132
89 -171 719 -322 l285 -68 19 24 c29 37 100 74 156 81 139 16 271 -97 271
-233 0 -30 7 -37 72 -80 147 -95 237 -218 259 -354 47 -288 -186 -531 -662
-690 -318 -107 -648 -158 -1144 -180 -729 -31 -1038 -66 -1335 -151 -438 -125
-688 -325 -766 -612 -32 -117 -27 -315 12 -445 6 -21 4 -23 -22 -20 -24 3 -30
9 -41 53 -21 77 -28 262 -13 352 50 319 289 550 715 691 306 102 628 147 1275
177 450 21 590 32 775 61 365 56 692 163 890 289 90 57 200 172 233 241 24 53
27 70 27 164 0 92 -3 112 -26 160 -33 70 -117 163 -193 212 l-59 38 -24 -73
c-14 -39 -49 -117 -79 -173 -32 -61 -54 -114 -54 -133 0 -24 -4 -31 -19 -31
-11 0 -29 -15 -41 -36 -21 -32 -23 -34 -35 -17 -27 40 -136 243 -170 317 -36
76 -38 79 -96 104 -67 29 -66 51 0 27 24 -8 45 -15 46 -15 1 0 -2 21 -7 48 -5
26 -6 72 -3 102 l6 56 -203 48 c-616 145 -759 200 -809 311 -22 47 -23 73 -7
129 52 171 442 290 1170 356 242 22 484 36 671 39 l117 1 0 -24z"/>
</g>
</svg>
